<?xml version="1.0" encoding="utf-8"?>
<!-- Generator: Adobe Illustrator 21.1.0, SVG Export Plug-In . SVG Version: 6.00 Build 0)  -->
<svg version="1.1" id="Final" xmlns="http://www.w3.org/2000/svg" xmlns:xlink="http://www.w3.org/1999/xlink" x="0px" y="0px"
	 viewBox="0 0 785 205" style="enable-background:new 0 0 785 205;" xml:space="preserve">
<style type="text/css">
	.st0{fill-rule:evenodd;clip-rule:evenodd;fill:#FFFFFF;}
	.st1{fill:#FFFFFF;}
	.st2{fill-rule:evenodd;clip-rule:evenodd;fill:#B0DC00;}
	.st3{fill:#B0DC00;}
</style>
<g>
	<path class="st0" d="M51.6,70.7v100.6c0,17.2,14,31.2,31.2,31.2h69c17.2,0,31.2-14,31.2-31.2V70.7H51.6z M169.4,168.9
		c0,11.1-9,20.1-20,20.1H85.1c-11.1,0-20-9-20-20.1V84.3h104.3V168.9z"/>
	<g>
		<g>
			<g>
				<polygon class="st1" points="2.6,127.5 2.6,120.3 36.7,98.6 36.7,110.2 15.4,123.9 36.7,137.6 36.7,149.2 				"/>
			</g>
		</g>
		<g>
			<polygon class="st1" points="232.7,120.3 232.7,127.5 198.6,149.2 198.6,137.6 219.9,123.9 198.6,110.2 198.6,98.6 			"/>
		</g>
	</g>
	<rect x="79.7" y="17.5" class="st2" width="11.6" height="41.1"/>
	<rect x="112.1" y="2.5" class="st2" width="11.6" height="56"/>
	<rect x="143.2" y="30.5" class="st2" width="11.6" height="28"/>
	<g>
		<path class="st3" d="M729.3,138.9c2,9.3,9.5,15.9,20.4,15.9c7.5,0,14.5-3.4,18.4-8.8l11.7,9.7c-6.6,8.9-18.3,14.7-32.2,14.7
			c-21.6,0-36.6-16.4-36.6-36.8c0-20.5,15-37,36.6-37c22,0,34.7,15.9,34.7,38.2c0,1.4-0.1,2.9-0.1,4.1H729.3z M729.5,127.2h35.4
			c-0.7-8.2-5-15.9-17.2-15.9C738,111.3,731.2,118.4,729.5,127.2z"/>
		<path class="st1" d="M257.8,74.2v71.8c0,0-1.8,24.4,31.2,24.4h6.4v-15h-8.2c0,0-10.7,0.4-10.7-9.4l0-33.2h18.9v-15h-18.8V74.2
			H257.8z"/>
		<path class="st1" d="M377.7,74.2v71.8c0,0-1.8,24.4,31.2,24.4h6.4v-15h-8.2c0,0-10.7,0.4-10.7-9.4l0-33.2h18.9v-15h-18.8V74.2
			H377.7z"/>
		<path class="st3" d="M672.7,170.5V98.7c0,0-1.8-24.4,31.2-24.4h4.5v15h-8.2c0,0-10.7-0.4-10.7,9.4l0,7.6h18.9v13.1h-18.8v51.1
			H672.7z"/>
		<path class="st1" d="M353,98v38.4c0,12.3-5.2,18.2-16,18.2c-10.6,0-15.8-6-15.8-18.2V98h-16.6v42.1c0,18.4,12.7,30.4,32.4,30.4
			c19.8,0,32.6-11.9,32.6-30.4V98H353z"/>
		<g>
			<path class="st1" d="M455.3,96.7c-20.4,0-36.9,16.5-36.9,36.9c0,20.4,16.5,36.9,36.9,36.9c20.4,0,36.9-16.5,36.9-36.9
				C492.2,113.2,475.7,96.7,455.3,96.7z M455.3,154.2c-11.4,0-20.6-9.2-20.6-20.6c0-11.4,9.2-20.6,20.6-20.6
				c11.4,0,20.6,9.2,20.6,20.6C475.9,144.9,466.7,154.2,455.3,154.2z"/>
		</g>
		<g>
			<path class="st1" d="M519.9,118.2c-2.3,2.6-3.7,6.3-3.7,11.6v40.7h-17.9v-37.6c0-6.9,1-12.7,3-17.3c2-4.7,4.8-8.4,8.3-11.2
				c3.4-2.6,7.3-4.6,11.8-5.8c4.5-1.2,7.7-1.8,12.4-1.8c0.3,0,0.8,0,1.3,0s2.2,0,2,0V112C537.1,112,525.6,111.6,519.9,118.2z"/>
		</g>
		<g>
			<path class="st3" d="M575.7,154.2c-11.4,0-20.6-9.2-20.6-20.6c0-11.4,9.2-20.6,20.6-20.6c5.5,0,10.5,2.2,14.2,5.7l11.6-11.6
				c-6.7-6.5-15.7-10.5-25.8-10.5c-20.4,0-36.9,16.5-36.9,36.9c0,20.4,16.5,36.9,36.9,36.9c10,0,19.1-4,25.8-10.5l-11.6-11.6
				C586.2,152,581.2,154.2,575.7,154.2z"/>
		</g>
		<g>
			<path class="st3" d="M770.3,79.9L754.7,92h-10.6l9.8-12.1H770.3z"/>
		</g>
		<g>
			<path class="st3" d="M649.1,164c0,0-4.2,7.9-20.6,7.9c-7.4,0-13.1-1.9-17.1-5.7c-4-3.8-5.9-9-5.9-15.7c0-6.9,2.7-12.2,8.2-16.1
				c5.4-3.8,13.1-5.8,22.9-5.8H649v-6.2c0-3.7-1.1-6.6-3.3-8.7c-2.2-2.1-5.3-3.2-9.4-3.2c-3.6,0-6.5,0.9-8.7,2.6
				c-2.1,1.8-3.2,4-3.2,6.8H609l-0.1-0.4c-0.3-5.6,2.2-10.6,7.5-14.9c5.3-4.3,12.3-6.5,20.8-6.5c8.3,0,15,2.1,20,6.3
				c5.1,4.2,7.6,10.3,7.6,18.1v31.6c0,2.9,0.2,5.8,0.6,8.4c0.4,2.7,1,5.3,1.9,7.9h-16.2L649.1,164z M631.7,159c4,0,7.7-1,10.9-3
				c3.2-2,5.4-4.3,6.4-6.9v-10.5h-12.7c-4.6,0-8.3,1.1-10.9,3.5c-2.6,2.3-3.9,5-3.9,8.1c0,2.7,0.9,4.9,2.7,6.5
				C625.9,158.2,628.4,159,631.7,159z"/>
		</g>
	</g>
</g>
</svg>
